<svg width="14" height="14" viewBox="0 0 14 14" fill="none" xmlns="http://www.w3.org/2000/svg">
    <path fill-rule="evenodd" clip-rule="evenodd" d="M8 14L8 13L1 13L1 6L9.5399e-08 6L1.19249e-08 13C8.76221e-09 13.2652 0.105357 13.5196 0.292893 13.7071C0.48043 13.8946 0.734784 14 1 14L8 14ZM13 1L4 1L4 10L13 10L13 1ZM3 10L3 1C3 0.734783 3.10536 0.48043 3.29289 0.292893C3.48043 0.105357 3.73478 4.45368e-08 4 4.76995e-08L13 1.55023e-07C13.2652 1.58186e-07 13.5196 0.105357 13.7071 0.292894C13.8946 0.48043 14 0.734783 14 1L14 10C14 10.2652 13.8946 10.5196 13.7071 10.7071C13.5196 10.8946 13.2652 11 13 11L4 11C3.73478 11 3.48043 10.8946 3.29289 10.7071C3.10536 10.5196 3 10.2652 3 10Z" fill="#334155"/>
</svg>
