<svg width="14" height="12" viewBox="0 0 14 12" fill="none" xmlns="http://www.w3.org/2000/svg">
    <path fill-rule="evenodd" clip-rule="evenodd" d="M13.715 0.747071C13.8217 0.747071 13.9091 0.831682 13.9124 0.936754V11.0586C13.9119 11.0911 13.9033 11.123 13.8875 11.1515C13.8717 11.1799 13.8492 11.2041 13.8219 11.2218C13.7946 11.2395 13.7633 11.2502 13.7309 11.253C13.6985 11.2558 13.6658 11.2505 13.6359 11.2377L13.6304 11.2355L11.0977 10.0427C11.0403 10.0157 10.9914 9.97331 10.9566 9.92019C10.9219 9.86706 10.9026 9.80531 10.9009 9.74184V2.09532C10.9011 2.02838 10.9209 1.96297 10.9578 1.90715C10.9948 1.85133 11.0473 1.80755 11.1088 1.78121L11.116 1.77789L13.6403 0.761449C13.6641 0.751905 13.6894 0.747023 13.715 0.747071ZM0.285305 0.747071C0.310881 0.747023 0.336228 0.751905 0.359957 0.761449L2.88431 1.77844C2.94773 1.80377 3.00214 1.84747 3.04056 1.90393C3.07898 1.96038 3.09967 2.02703 3.09998 2.09532V9.73354C3.09998 9.86571 3.02256 9.98627 2.90256 10.0432L0.369911 11.235C0.339902 11.2489 0.306891 11.2551 0.273877 11.253C0.240864 11.2509 0.208894 11.2406 0.180874 11.223C0.152854 11.2055 0.129671 11.1812 0.113432 11.1523C0.0971937 11.1235 0.0884139 11.0911 0.0878906 11.058L0.0878906 0.942838C0.0878906 0.834447 0.176368 0.747071 0.285305 0.747071ZM7.22245 2.95636L9.55713 4.29244C9.62455 4.33078 9.68063 4.38628 9.71967 4.45329C9.75871 4.52031 9.77933 4.59646 9.77943 4.67402V7.34618C9.77933 7.42374 9.75871 7.4999 9.71967 7.56691C9.68063 7.63393 9.62455 7.68942 9.55713 7.72776L7.22245 9.06384C7.15475 9.10255 7.07813 9.1229 7.00015 9.1229C6.92217 9.1229 6.84555 9.10255 6.77785 9.06384L4.44317 7.72776C4.37575 7.68942 4.31968 7.63393 4.28063 7.56691C4.24159 7.4999 4.22097 7.42374 4.22087 7.34618V4.67402C4.22087 4.51697 4.30548 4.37152 4.44317 4.29244L6.77785 2.95636C6.84555 2.91766 6.92217 2.8973 7.00015 2.8973C7.07813 2.8973 7.15475 2.91766 7.22245 2.95636Z" fill="#3B82F6"/>
</svg>
